<?xml version="1.0" encoding="UTF-8" standalone="no"?>
<!-- Created with Inkscape (http://www.inkscape.org/) -->

<svg
   version="1.1"
   id="svg1115"
   width="1375.9877"
   height="977.06665"
   viewBox="0 0 1375.9877 977.06665"
   sodipodi:docname="1b.svg"
   inkscape:version="1.2.2 (732a01da63, 2022-12-09, custom)"
   xmlns:inkscape="http://www.inkscape.org/namespaces/inkscape"
   xmlns:sodipodi="http://sodipodi.sourceforge.net/DTD/sodipodi-0.dtd"
   xmlns="http://www.w3.org/2000/svg"
   xmlns:svg="http://www.w3.org/2000/svg">
  <defs
     id="defs1119" />
  <sodipodi:namedview
     id="namedview1117"
     pagecolor="#ffffff"
     bordercolor="#000000"
     borderopacity="0.25"
     inkscape:showpageshadow="2"
     inkscape:pageopacity="0.0"
     inkscape:pagecheckerboard="0"
     inkscape:deskcolor="#d1d1d1"
     showgrid="false"
     inkscape:zoom="0.54115914"
     inkscape:cx="774.26393"
     inkscape:cy="516.48394"
     inkscape:window-width="1846"
     inkscape:window-height="1016"
     inkscape:window-x="0"
     inkscape:window-y="0"
     inkscape:window-maximized="1"
     inkscape:current-layer="svg1115" />
  <g
     inkscape:groupmode="layer"
     id="layer2"
     inkscape:label="Base"
     style="display:inline">
    <path
       id="path1233"
       style="display:inline;fill:#000000;stroke-width:1.06667"
       d="m 1082.5682,-15.440369 -1.3067,16.26757812 c -1.0499,13.07006888 -1.6872,16.65634988 -3.2402,18.25195288 -1.8481,1.898719 -3.6261,1.945292 -40.5058,1.066406 -24.2337,-0.577443 -38.94926,-0.542835 -39.58403,0.09375 -1.47101,1.475231 -1.23803,8.841646 0.32227,10.181641 0.73334,0.629777 2.22746,1.761864 3.32026,2.515625 1.9321,1.33278 1.9281,1.484918 -0.1503,5.5625 -4.31564,8.464541 -11.43855,25.898362 -16.29887,39.880859 L 980.1346,92.731506 873.06038,172.88385 c -58.88898,44.08191 -107.43305,79.95528 -107.87305,79.7168 -0.44,-0.23848 -0.80078,-14.0864 -0.80078,-30.77149 v -30.33594 h 4.18359 c 3.82934,0 4.28771,-0.31394 5.40625,-3.70312 0.95667,-2.89876 0.91586,-4.34606 -0.1914,-6.66602 -1.20988,-2.53462 -2.14574,-3.0112 -6.4668,-3.28906 -3.43024,-0.22057 -5.35368,-0.90483 -5.99219,-2.13281 -1.65583,-3.18449 -7.45239,-27.00511 -9.65429,-39.67578 -3.07468,-17.69055 -4.42888,-31.60397 -4.67188,-48.000002 l -0.21289,-14.400391 5.84375,-0.330078 c 3.21386,-0.181968 6.20658,-0.901606 6.65039,-1.599609 1.34542,-2.115986 0.93544,-9.997154 -0.58594,-11.259766 -0.97055,-0.805459 -13.49141,-1.271969 -39.20117,-1.462891 l -37.77344,-0.28125 0.37305,-8.404296 c 0.41324,-9.284173 -0.11815,-10.218044 -5.83594,-10.246094 l -3.32812,-0.01563 -0.75196,9.599609 -0.75,9.59961 -19.38671,0.134765 c -10.66234,0.07372 -26.34715,0.434531 -34.85352,0.800781 l -15.4668,0.666016 v 5.300781 c 0,4.580593 0.36205,5.486477 2.66602,6.664063 1.46666,0.749621 2.53713,1.872881 2.37891,2.496094 -0.15852,0.623184 -2.84504,7.225683 -5.97071,14.669921 -9.26303,22.061997 -14.40406,39.186887 -19.27148,64.201167 l -2.38672,12.26758 -4.96875,0.32422 c -4.25345,0.2781 -5.06458,0.70068 -5.625,2.93359 -1.14755,4.5722 0.34824,7.69608 4.38086,9.1543 2.05152,0.74184 3.73047,1.75431 3.73047,2.24804 0,0.49401 -3.5447,8.91757 -7.87696,18.71875 -10.62354,24.03511 -16.94649,41.52796 -21.95312,60.73829 -1.13663,4.36081 -9.82784,11.57976 -251.54102,208.96289 C 157.5873,581.94908 44.437016,674.32143 43.847486,674.77057 c -0.589501,0.44913 -6.549466,-1.79148 -13.246093,-4.97852 -14.363304,-6.83548 -16.599488,-6.83758 -15.830078,-0.0117 0.898671,7.97324 3.390363,11.39912 12.839843,17.6543 25.074855,16.59871 54.089778,34.08742 129.285152,77.92188 107.93775,62.92075 125.91127,74.53808 147.64063,95.43554 29.00479,27.89434 44.45238,57.26765 46.66406,88.73047 l 0.70117,9.9707 112.10938,0.15625 c 61.65834,0.0861 210.27234,0.46924 330.24219,0.85157 119.96986,0.38233 285.15116,0.7919 367.05466,0.91015 l 148.9199,0.21485 0.5469,-6.81446 c 0.3294,-4.102 1.6825,-9.30364 3.3985,-13.0664 3.1572,-6.92378 11.5509,-16.13918 18.33,-20.12305 5.6133,-3.29887 18.5461,-7.58183 25.75,-8.52734 3.08,-0.40426 5.6148,-1.29046 5.6328,-1.96875 0.018,-0.67828 0.9213,-7.71282 2.0079,-15.63282 1.0866,-7.91971 1.8553,-14.53676 1.7089,-14.70312 -0.3539,-0.40211 -129.3523,4.95765 -137.8261,5.72656 l -6.6094,0.59961 -0.3242,4.45508 -0.3242,4.45508 -11.1075,0.30664 c -6.1091,0.16825 -11.5179,-0.10569 -12.0195,-0.60742 -1.2313,-1.23124 -4.3377,-19.33528 -3.6328,-21.17188 0.4671,-1.21739 13.6415,-1.46184 79.2598,-1.46484 43.2823,-0.002 87.0052,-0.31814 97.1543,-0.70313 l 18.4531,-0.69922 -0.3203,-4.36328 -0.3203,-4.36328 -6.043,-0.31836 -6.043,-0.3164 -8.7187,-12.48243 c -40.4699,-57.93596 -79.8901,-134.84109 -101.7207,-198.44921 -17.4438,-50.81986 -25.8004,-92.78479 -27.0391,-135.78125 l -0.6035,-20.94922 2.5508,-1.33008 c 1.4032,-0.73127 2.6922,-1.44538 2.8652,-1.58789 0.7667,-0.63124 -2.2786,-10.11914 -3.248,-10.11914 -0.595,0 -12.1713,5.09113 -25.7247,11.3125 -22.6753,10.40953 -25.0513,11.2718 -29.75,10.82031 -2.8053,-0.26983 -5.3237,-0.7105 -5.5917,-0.97852 -0.7305,-0.73059 -9.6824,-54.13447 -12.75,-76.08789 -3.3,-23.59417 -5.6753,-48.44127 -6.1172,-64 l -0.3321,-11.73242 9.2578,0.33789 c 10.2492,0.37393 11.5411,-0.41573 11.5411,-7.03711 0,-4.04264 -2.6248,-6.21396 -8.3946,-6.94336 -2.5644,-0.32418 -5.2049,-1.1309 -5.8672,-1.79297 -0.8749,-0.87433 -1.205,-25.17979 -1.205,-88.88476 v -87.67969 l 6.1914,-0.0293 c 7.0141,-0.0329 8.1673,-1.0254 8.1933,-7.04101 0.022,-5.1329 -2.093,-6.68085 -10.0117,-7.33008 l -6.5058,-0.5332 -1.8125,-8.53321 c -0.9976,-4.69304 -2.5737,-14.53413 -3.502,-21.86718 -1.8223,-14.395287 -4.4399,-72.398605 -3.3906,-75.132815 0.4613,-1.202196 2.1196,-1.666016 5.957,-1.666016 5.2318,0 5.33,-0.06106 6.0176,-3.726562 0.9075,-4.837083 -0.1261,-8.796812 -2.4707,-9.458985 -1.0252,-0.289548 -18.5451,-0.857458 -38.9317,-1.261719 l -37.0664,-0.734375 v -2.773437 c 0,-1.525524 0.5435,-9.4431728 1.2071,-17.59375 1.3344,-16.388503 1.2476,-16.672035 -5.0508,-16.703125 z m -16.9609,132.347659 c 2.1912,-0.0283 3.7045,0.0455 4.2324,0.24804 1.6106,0.61805 1.7514,1.73448 1.1328,8.98829 -0.5662,6.63859 -1.1566,8.64778 -2.9785,10.125 -1.2501,1.01333 -3.7127,1.79221 -5.4727,1.72851 -10.16,-0.3675 -77.85711,-5.33956 -78.26561,-5.74805 -0.27041,-0.26958 -0.26692,-0.71354 0.006,-0.98632 1.21292,-1.21293 27.85451,-8.25174 38.63281,-10.20704 10.8607,-1.96999 33.2052,-4.02584 42.7129,-4.14843 z m 18.4921,1.2207 c 5.9196,0.25982 27.0069,4.67617 36.4161,7.82422 11.235,3.75987 27.083,10.80236 34.2714,15.23242 l 3.7325,2.30078 -9.0664,-0.125 c -13.906,-0.19203 -67.5973,-4.09104 -68.3457,-4.96289 -0.7417,-0.864 0.5952,-19.24179 1.4628,-20.10937 0.1483,-0.14829 0.6837,-0.19728 1.5293,-0.16016 z m -113.4609,26.73242 c 0.18652,-0.006 0.35723,0.0321 0.49805,0.11914 0.59418,0.36723 -0.31036,3.88218 -2.15234,8.37305 -4.79236,11.68227 -12.07165,37.91904 -15.79297,56.92383 -1.82539,9.32167 -3.66969,18.39039 -4.09961,20.15039 -0.59215,2.42409 -4.5242,6.25263 -16.21094,15.79297 -45.21722,36.91256 -41.96483,34.49601 -41.19141,30.6289 2.04743,-10.23688 18.02837,-43.9843 30.79883,-65.03711 11.60854,-19.13731 28.90349,-43.70671 46.36133,-65.86328 0.52072,-0.66088 1.2295,-1.07079 1.78906,-1.08789 z m -310.89844,7.25977 c 0.82523,-0.0177 1.44075,0.005 1.79883,0.0742 1.63096,0.31418 1.8685,1.35503 1.63086,7.17773 -0.15288,3.74554 -0.71087,7.94485 -1.23828,9.33203 -0.88742,2.33417 -1.49793,2.51048 -8.18555,2.35938 -15.82897,-0.35767 -65.35937,-3.44088 -65.35937,-4.06836 0,-0.85606 26.22898,-7.89865 39.4668,-10.59766 10.05165,-2.0494 26.1104,-4.15329 31.88671,-4.27734 z m 14.52149,0.43945 7.46289,0.30664 c 10.04709,0.41214 26.08776,3.77554 39.67187,8.32031 13.52693,4.52583 33.39063,13.10404 33.39063,14.41993 0,1.24673 -5.64675,1.08718 -46.35156,-1.31446 -18.74664,-1.10607 -34.47484,-2.39866 -34.94922,-2.87304 -0.47442,-0.47439 -0.49351,-4.91247 -0.043,-9.86133 z M 780.42561,284.5108 c 10.77359,-0.12892 26.73947,0.8307 35.17578,2.34375 11.47631,2.05827 25.92507,6.22983 35.76953,10.32813 13.7042,5.70501 17.02726,1.4482 -32.69531,41.87109 -24.2849,19.74292 -44.53291,35.89839 -44.99414,35.90039 -0.46124,0.002 -0.70111,-4.67453 -0.5332,-10.39453 0.29673,-10.108 0.37588,-10.40038 2.81054,-10.42578 5.17983,-0.054 7.4135,-8.18815 3.36133,-12.24023 -1.17333,-1.17334 -3.54126,-2.13477 -5.26172,-2.13477 -2.0445,0 -3.33143,-0.64525 -3.71484,-1.86523 -0.74972,-2.3857 -3.60007,-33.50252 -4.0293,-43.98243 l -0.32812,-7.98047 5.86719,-0.9082 c 1.96618,-0.30431 4.98104,-0.46874 8.57226,-0.51172 z m -240.10742,5.11524 c 0.42377,0 0.36422,3.03636 -0.13281,6.74609 -0.49704,3.70973 -1.25421,12.70981 -1.6836,20 l -0.78125,13.25391 -8.78515,-0.375 c -8.62723,-0.36861 -8.80362,-0.32511 -9.83985,2.40039 -2.08809,5.49222 1.77635,10.24219 8.33399,10.24219 6.79233,0 6.78931,0.49868 -0.0547,12.07617 -16.07203,27.18776 -24.16854,45.14022 -28.99414,64.28125 -2.33904,9.27778 -3.23088,13.93324 -5.53125,28.86523 -0.44773,2.90622 -2.76586,4.99017 -17.29102,15.55469 -16.48646,11.99108 -64.79112,47.23188 -159.70507,116.51172 -26.39984,19.26979 -49.56014,36.21914 -51.4668,37.66601 -2.46489,1.87048 -3.4668,2.19391 -3.4668,1.11914 0,-2.19409 16.66403,-31.82273 26.92578,-47.87304 46.26182,-72.35782 122.68041,-158.24381 237.98828,-267.47657 7.54266,-7.14518 14.06061,-12.99218 14.48438,-12.99218 z m 105.33984,15.04297 c 2.80474,0.0346 4.64068,0.20405 4.83594,0.53906 0.30519,0.52364 0.0163,7.19191 -0.64258,14.81836 l -1.19726,13.86719 -7.4668,0.13476 c -4.10667,0.0742 -25.46724,-0.72556 -47.4668,-1.77734 -21.99934,-1.05178 -41.32026,-1.95286 -42.93359,-2.00196 -1.61334,-0.0491 -2.93359,-0.46117 -2.93359,-0.91601 0,-0.96912 17.01797,-8.46313 29.49609,-12.98828 10.07968,-3.65556 22.90734,-7.04859 35.03711,-9.26758 7.72267,-1.41276 24.85748,-2.51218 33.27148,-2.4082 z m 18.33008,1.48046 c 3.73138,-0.149 16.74034,2.10226 26.99805,4.78907 13.14608,3.44313 32.24255,10.48216 49.93359,18.40429 9.09312,4.07207 17.13385,7.65447 17.86719,7.95899 0.73333,0.30452 1.33398,0.98196 1.33398,1.50586 0,0.52389 -1.32026,0.87911 -2.93359,0.79101 -16.07854,-0.87779 -60.37252,-2.96123 -76.39648,-3.59375 l -20.12891,-0.79492 0.75391,-13.99219 c 0.41494,-7.69556 1.12473,-14.37883 1.57617,-14.85156 0.11935,-0.12498 0.46304,-0.19551 0.99609,-0.2168 z m 385.96879,0.60157 c 3.9656,0.003 4.809,0.40736 5.1796,1.37304 0.3668,0.95589 0.2575,5.70437 -0.2421,10.55274 l -0.9082,8.8164 -6.3985,0.12696 c -8.18,0.16265 -75.80512,-3.66666 -84.26756,-4.77149 -5.82785,-0.76086 -6.15949,-0.93583 -3.70703,-1.97656 4.90722,-2.08243 36.11488,-8.92487 49.99999,-10.96289 7.5162,-1.10314 20.6841,-2.34666 29.2617,-2.76367 5.2006,-0.25284 8.7027,-0.39634 11.0821,-0.39453 z m 20.2109,1.53125 c 7.4817,0.0334 33.3229,5.44094 47.5586,10.23437 9.0515,3.04796 25.4366,9.60313 33.8613,13.54688 l 6.9317,3.24609 -5.8653,-0.0469 c -6.8951,-0.0553 -68.8504,-4.66523 -78.9336,-5.87305 l -6.9336,-0.83008 0.2832,-9.5625 c 0.1557,-5.25945 0.6512,-9.9324 1.1016,-10.38281 0.232,-0.23204 0.9273,-0.33681 1.9961,-0.33203 z M 635.10335,442.55572 c 2.0384,0.0236 3.32326,0.1514 3.57226,0.4004 0.60584,0.60573 0.45861,7.13702 -0.38281,16.89453 l -1.37305,15.9082 -10.66601,0.0977 c -20.99611,0.19157 -90.13282,-1.97469 -90.13282,-2.82422 0,-1.03667 11.73517,-15.90408 14.05079,-17.80078 2.09699,-1.71781 21.9716,-6.19431 39.14648,-8.81641 13.98351,-2.13487 36.95164,-3.96179 45.78516,-3.85938 z m 20.69726,0.4375 c 0.8948,-0.0184 2.05537,0.0217 3.58008,0.084 7.90489,0.32284 25.27799,2.19987 25.87305,2.79492 0.24347,0.24349 -0.58476,1.74959 -1.8418,3.34766 -1.26684,1.61045 -1.87896,3.31245 -1.37305,3.81836 0.50203,0.50203 5.67463,1.35898 11.4961,1.90429 5.82143,0.54532 11.54542,1.24079 12.71875,1.54688 1.17334,0.30609 11.01389,2.74856 21.86718,5.42578 10.85329,2.67724 23.57229,6.02848 28.26563,7.44727 8.55035,2.58473 18.66797,8.06223 18.66797,10.10742 0,1.32464 -4.2656,1.26878 -72,-0.93946 l -52.26758,-1.70312 0.34375,-14.08008 c 0.18957,-7.744 0.69686,-15.39771 1.12695,-17.00586 0.56417,-2.10951 0.85857,-2.69276 3.54297,-2.74805 z m 369.83009,19.3125 c 5.1847,-0.01 9.4645,0.16364 12.1894,0.57227 l 5.0997,0.76563 -0.7266,8.7246 c -0.4002,4.79854 -1.0305,11.59914 -1.4004,15.11133 -0.4806,4.56371 -1.13,6.42693 -2.2734,6.53125 -0.88,0.0803 -17.6788,-0.95174 -37.3321,-2.29492 -19.65233,-1.34317 -39.18556,-2.4837 -43.40427,-2.5332 -4.2185,-0.0495 -7.95968,-0.55607 -8.3125,-1.12696 -0.70968,-1.1481 8.19603,-17.19286 10.69336,-19.26562 3.54138,-2.93908 42.99981,-6.44273 65.46681,-6.48438 z m 32.5117,2.77735 c 8.7646,-0.13344 46.7934,9.19298 67.3711,16.83789 16.3389,6.0701 45.2734,18.93123 45.2734,20.12305 0,0.50379 -1.0804,0.83492 -2.4004,0.73632 -1.3181,-0.0986 -4.3193,-0.33803 -6.666,-0.53125 -2.3467,-0.1932 -27.3068,-1.84211 -55.4668,-3.66601 -28.1581,-1.8239 -51.5923,-3.68217 -52.0722,-4.12891 -1.0888,-1.0138 0.9684,-27.74961 2.2324,-29.01367 0.2286,-0.22862 0.8218,-0.34362 1.7285,-0.35742 z m -539.2578,0.14648 c 0.0484,-2.7e-4 0.0799,0.005 0.0957,0.0195 0.25322,0.22495 -1.16093,2.08242 -3.14258,4.12696 -3.35024,3.45656 -4.05614,3.71411 -10.06055,3.66601 l -6.45703,-0.0527 9.59961,-4.07422 c 4.95,-2.10096 9.23948,-3.68147 9.96485,-3.68555 z m -28.5,4.66407 c 0.51483,0 0.93554,0.71962 0.93554,1.5996 0,0.91965 -0.96239,1.59961 -2.26367,1.59961 -1.89145,0 -2.04496,-0.26287 -0.93555,-1.59961 0.73034,-0.87998 1.74885,-1.5996 2.26368,-1.5996 z m -14.08789,12.52734 c 0.71945,-0.13076 1.2236,0.2021 1.89843,0.80273 1.0587,0.94226 3.03195,2.53024 4.38477,3.5293 l 2.45898,1.81641 -4.75781,10.1289 -4.75977,10.12891 -50.76757,50.66211 c -27.92177,27.86426 -50.76758,50.14915 -50.76758,49.52344 0,-2.05922 14.94752,-27.27627 24.57812,-41.46485 5.19736,-7.65714 13.66837,-19.20098 18.82422,-25.65429 9.63253,-12.05649 39.04669,-42.78246 51.74024,-54.04688 4.17294,-3.70315 5.96884,-5.20784 7.16797,-5.42578 z m 327.2207,5.62891 c 4.7913,-0.0875 35.14659,25.08766 55.73242,46.22265 5.36659,5.50987 5.67279,6.09345 4.13281,7.85352 -0.91479,1.04552 -16.41179,18.46137 -34.4375,38.70117 -18.02571,20.2398 -33.14827,36.93913 -33.60547,37.11133 -0.45721,0.1722 -1.11598,-1.26702 -1.46484,-3.19922 -1.67502,-9.27688 -6.08826,-42.56945 -7.55078,-56.96485 -2.01815,-19.86447 -4.12116,-60.90552 -3.19727,-62.40039 0.3976,-0.64333 3.8408,-0.95827 8.30274,-0.75781 l 7.625,0.34375 1.59961,-3.44336 c 0.88,-1.89397 2.16839,-3.45409 2.86328,-3.46679 z M 614.93538,584.1983 c 6.99082,-0.0963 11.89209,0.0983 12.24414,0.66797 0.67119,1.08599 -1.02304,28.78161 -2.08594,34.09375 -0.47088,2.35342 -0.75478,2.3959 -14.59375,2.24414 -16.93826,-0.18575 -109.28103,-2.60639 -138.11328,-3.62109 -11.29321,-0.39745 -20.5332,-1.07559 -20.5332,-1.50586 0,-0.7693 26.07365,-9.01019 45.77929,-14.46875 23.2809,-6.44895 52.24169,-12.10224 76.31836,-14.90039 11.87742,-1.38037 29.33293,-2.34928 40.98438,-2.50977 z m 28.36718,1.33203 c 5.72648,0.18135 27.26404,3.14558 38.85743,5.46485 15.92106,3.18493 35.35346,8.45136 52.54882,14.24023 16.66832,5.61151 48.87891,18.49215 48.87891,19.54688 0,0.81863 -19.46449,1.24448 -20.35547,0.44531 -0.24444,-0.21926 -28.18742,-1.02132 -62.09375,-1.78125 -33.90619,-0.75995 -61.82306,-1.66077 -62.03515,-2.00391 -0.46707,-0.75574 2.21874,-35.24024 2.78906,-35.81054 0.0977,-0.0977 0.5922,-0.12747 1.41015,-0.10157 z m 382.22464,10.39649 c 3.4093,0.0379 5.5998,0.18642 5.7676,0.4707 0.754,1.27798 -1.7785,30.60091 -2.7833,32.22656 -0.8596,1.39076 -2.6001,1.3952 -27.3242,0.0645 -9.09261,-0.48943 -37.86443,-1.85513 -63.93552,-3.03321 -26.07091,-1.1779 -47.8039,-2.54021 -48.29297,-3.02929 -1.75678,-1.75696 3.11151,-4.24467 15.69532,-8.01953 26.85445,-8.05616 54.68308,-13.94835 78.93359,-16.71289 10.50942,-1.19818 31.71148,-2.08045 41.93948,-1.9668 z m -852.07424,59.06836 c 25.45011,-0.0353 34.61979,0.68222 33.93554,2.65234 -0.18433,0.53077 -18.44604,14.18244 -40.58203,30.33789 -22.13597,16.15551 -40.86891,29.375 -41.62891,29.375 -0.75993,0 -2.32913,-0.65473 -3.48632,-1.45312 -1.15721,-0.79839 -17.82392,-9.47732 -37.037113,-19.28711 -19.213197,-9.80981 -34.933594,-18.15803 -34.933594,-18.55078 0,-2.88178 24.674284,-9.85987 58.666017,-16.5918 27.53091,-5.45236 37.47937,-6.44412 65.06641,-6.48242 z m -21.00977,61.375 c 7.49902,-0.0376 18.46457,0.0514 34.76172,0.22265 37.52671,0.39435 51.44186,0.91701 60.86914,2.28321 6.7217,0.97412 12.48254,2.04168 12.80078,2.37304 0.31823,0.33136 -9.65568,10.63271 -22.16406,22.89063 -12.50837,12.25792 -23.06856,22.27151 -23.4668,22.25391 -0.39823,-0.0176 -11.77505,-6.15827 -25.28125,-13.64649 -13.50619,-7.48823 -32.105,-17.67007 -41.33203,-22.62695 -9.227,-4.95693 -16.77734,-9.36422 -16.77734,-9.79297 0,-0.42875 1.50859,-1.55867 3.35156,-2.51172 1.87087,-0.96745 4.73988,-1.38258 17.23828,-1.44531 z m 249.01562,38.32226 c 0.9145,-0.88969 -0.66861,84.56759 -1.6289,87.93164 -0.49148,1.72178 -1.34571,3.2499 -1.90039,3.39649 -1.3547,0.35804 -22.36443,-5.65747 -39.4336,-11.29102 -20.89087,-6.89482 -43.53541,-16.20614 -66.60742,-27.38867 -25.63968,-12.42704 -66.16797,-34.29204 -66.16797,-35.69726 0,-0.63292 3.02447,-0.81289 7.73243,-0.45899 4.25329,0.31971 14.93442,1.0901 23.73437,1.71094 37.73869,2.66254 56.10466,6.63401 101.625,21.97851 16.70187,5.63011 30.66052,9.791 31.12891,9.2793 0.46705,-0.51023 3.12512,-11.72783 5.9082,-24.92773 2.78309,-13.19995 5.30786,-24.23988 5.60937,-24.53321 z m 157.68165,70.95313 c 6.44928,0.0271 12.8785,0.2053 19.27929,0.5332 22.35392,1.14516 27.75987,1.7663 28.70703,3.29883 0.5694,0.9213 -2.37555,41.79788 -3.35351,46.54883 -0.27172,1.32 -0.84462,2.33952 -1.27344,2.26562 -0.42882,-0.0739 -7.4997,-0.78613 -15.71289,-1.58203 -53.32539,-5.16735 -94.55948,-10.64402 -128.5332,-17.07031 -27.7504,-5.24919 -40.65888,-8.24632 -40.67578,-9.44531 -0.0323,-2.29604 32.6248,-11.72539 57.07812,-16.48047 28.19557,-5.48297 56.53719,-8.18578 84.48438,-8.06836 z m 63.91992,5.31445 4.79687,0.29492 c 15.53744,0.95573 65.72702,13.23299 97.0625,23.74414 28.10402,9.42719 82.13477,31.25389 82.13477,33.17969 0,1.03212 -8.95405,0.9706 -36.80078,-0.25 -76.19431,-3.33981 -148.58659,-7.79542 -150.02539,-9.23437 -0.47056,-0.47056 -0.026,-11.4032 0.98828,-24.29493 z m 185.55859,9.94336 c 2.41096,0.20184 13.72639,9.03854 27.3457,21.51563 9.08526,8.32319 9.18309,8.46844 9.80079,14.45312 0.34299,3.32494 0.8996,6.32148 1.23632,6.6582 0.33671,0.33671 2.26727,-0.17752 4.29102,-1.14257 2.21854,-1.05796 3.93254,-1.34572 4.31641,-0.72461 0.34999,0.56658 1.56832,1.02929 2.70703,1.02929 1.46376,0 2.07031,-0.73553 2.07031,-2.51367 0,-2.12732 1.45972,-3.18299 9.47266,-6.85351 25.89612,-11.86295 58.51118,-21.70813 85.93359,-25.9375 8.17435,-1.26079 22.48112,-2.4091 34.63281,-2.78125 l 20.70309,-0.63477 -0.7109,10.02734 c -0.3907,5.51491 -1.2623,16.62686 -1.9375,24.69336 l -1.2266,14.66797 -27.30074,-0.16992 c -28.17134,-0.17396 -84.84772,-1.35716 -132.25782,-2.76172 l -27.09179,-0.80273 -6.21094,-24 c -3.41636,-13.19983 -6.22569,-24.11897 -6.24219,-24.26563 -0.0382,-0.3382 0.12433,-0.48586 0.46875,-0.45703 z m 327.73833,32.02539 15.8808,6.43555 c 8.7346,3.53895 20.6821,8.60732 26.5488,11.26367 l 10.6661,4.83008 -40,-0.23047 c -22,-0.12722 -59.4393,-0.47986 -83.1993,-0.7832 l -43.2011,-0.55078 0.3398,-8 c 0.1861,-4.4 0.5547,-8.76987 0.8203,-9.70899 0.4313,-1.52482 6.4563,-1.78913 56.3145,-2.48047 z"
       transform="translate(-14.638502,15.440369)" />
  </g>
  <g
     inkscape:groupmode="layer"
     id="layer3"
     inkscape:label="Sail"
     style="display:inline;fill:#ffe680">
    <path
       style="display:inline;fill:#ffaaaa;stroke-width:1.06667"
       d="m 881.72024,304.16602 c 0,-6.13176 3.62378,-22.50173 7.58692,-34.27305 4.79645,-14.24635 16.72835,-39.7148 26.084,-55.67583 26.58787,-45.35976 69.24656,-98.90138 122.59574,-153.871945 8.8,-9.067446 14.0476,-15.068606 11.6614,-13.335913 -2.3861,1.732694 -67.59059,50.430357 -144.89877,108.217018 l -140.56032,105.06667 0.65183,9.46699 c 0.35852,5.20684 0.9192,9.89958 1.24596,10.4283 0.33634,0.54422 5.76597,0.66725 12.51369,0.28356 29.59041,-1.68257 61.0023,5.14679 88.47084,19.23474 7.17678,3.6808 13.40871,6.75853 13.84871,6.83939 0.44,0.0808 0.8,-0.9901 0.8,-2.37993 z"
       transform="translate(-14.638502,15.440369)"
       id="path1407" />
    <path
       style="fill:#ffaaaa;stroke-width:1.06667"
       d="m 731.32024,457.25795 c 0,-1.07696 -15.04067,-5.66978 -27.8269,-8.49723 -7.30234,-1.61478 -9.51985,-1.76266 -10.93333,-0.7291 -0.9752,0.71309 -1.7731,1.53469 -1.7731,1.82576 0,0.29108 3.24,0.85465 7.2,1.25236 3.96,0.39772 12.72,2.09644 19.46666,3.77494 14.56573,3.62378 13.86667,3.50415 13.86667,2.37327 z"
       transform="translate(-14.638502,15.440369)"
       id="path1375" />
    <path
       style="display:inline;fill:#ffaaaa;stroke-width:1.06667"
       d="m 879.99799,536.8263 c 4.3722,-53.60172 23.63611,-124.08985 51.47584,-188.35411 25.78012,-59.50992 66.48872,-126.11104 108.88637,-178.143 4.9434,-6.06674 8.8317,-11.18219 8.6407,-11.36766 -0.8055,-0.78199 -160.42671,129.97813 -161.23875,132.08512 -0.49027,1.27214 -1.16008,6.99298 -1.48844,12.71298 -0.43068,7.50229 -0.98244,10.4 -1.98031,10.4 -0.76081,0 -4.51683,-1.96472 -8.34672,-4.36605 -3.82989,-2.40134 -7.38205,-4.20134 -7.89368,-4 -0.51164,0.20133 -22.17127,17.63334 -48.13251,38.7378 l -47.20227,38.37174 0.68606,11.76159 c 1.98711,34.06675 6.44487,73.51517 8.71191,77.09492 0.83594,1.32 2.07481,2.4 2.75304,2.4 0.67822,0 7.5628,3.087 15.29905,6.86 18.72559,9.13255 30.37037,18.13131 56.48529,43.65022 11.73334,11.46556 21.62432,20.87121 21.97997,20.90146 0.35566,0.0303 0.96965,-3.90501 1.36445,-8.74501 z"
       transform="translate(-14.638502,15.440369)"
       id="path1329" />
    <path
       style="fill:#ffaaaa;stroke-width:1.06667"
       d="m 1185.6313,637.98743 c -0.7224,-0.71331 -21.4877,-8.88391 -40.9778,-16.1236 -36.0602,-13.39482 -61.5183,-19.94732 -94.7224,-24.38006 -2.6263,-0.3506 -4.2021,-0.0919 -4.4712,0.73388 -0.991,3.04214 -2.6774,31.03011 -1.9151,31.7841 0.7716,0.76324 16.9173,1.90536 53.1087,3.7568 7.6267,0.39016 30.6667,1.73854 51.2,2.9964 20.5334,1.25786 37.5334,2.14849 37.7778,1.97919 0.2444,-0.16932 0.2444,-0.50534 0,-0.74671 z"
       transform="translate(-14.638502,15.440369)"
       id="path1305" />
    <path
       style="display:inline;fill:#ffaaaa;stroke-width:1.06667"
       d="m 88.403706,661.41593 c 11.870764,-2.63878 27.343204,-5.72898 34.383204,-6.86715 38.35144,-6.20028 76.4133,-5.51715 107.68243,1.93268 7.54111,1.79666 8.26383,1.81453 8.80556,0.21774 6.92854,-20.42236 22.573,-53.3788 35.51058,-74.80624 50.23504,-83.20008 130.36215,-173.41678 270.37238,-304.41766 33.05408,-30.92712 41.82484,-39.29949 38.42905,-36.68354 -1.60956,1.23993 -301.1765,245.81034 -503.733344,411.25455 -14.71143,12.016 -19.17927,16.52589 -14.64986,14.7878 0.88925,-0.34123 11.32925,-2.77942 23.2,-5.41818 z"
       transform="translate(-14.638502,15.440369)"
       id="path1301" />
    <path
       style="fill:#ffaaaa;stroke-width:1.06667"
       d="m 328.5507,706.06619 c 19.40396,-57.49204 38.51077,-99.20475 62.14889,-135.67932 29.40574,-45.37422 62.55799,-78.79767 133.95398,-135.04977 17.61617,-13.87958 23.2951,-18.73708 18.5854,-15.89714 -0.77803,0.46916 -66.01426,48.01548 -144.96942,105.65852 l -143.55483,104.8055 -3.45483,8.26116 c -1.90015,4.54363 -4.77273,11.86116 -6.3835,16.26116 -1.61077,4.4 -3.60187,8.13632 -4.42465,8.30294 -0.8228,0.16661 -6.4771,-0.90318 -12.56512,-2.37731 -6.08803,-1.47415 -11.58603,-2.29089 -12.21777,-1.81501 -0.63173,0.47589 -16.86862,12.29492 -36.08195,26.26451 -19.21334,13.96959 -34.93333,25.81002 -34.93333,26.31206 0,0.50204 15.71999,0.92393 34.93333,0.93754 46.09502,0.0326 63.34091,1.13505 84.79795,5.42059 12.8727,2.57102 32.95622,8.35816 43.51341,12.53855 4.37542,1.73255 8.73953,3.19496 9.69801,3.24978 1.34851,0.0771 3.82638,-6.07404 10.95443,-27.19376 z"
       transform="translate(-14.638502,15.440369)"
       id="path1297" />
    <path
       style="fill:#ffaaaa;stroke-width:1.06667"
       d="m 392.78595,773.27734 c 18.58003,-86.11956 39.16193,-142.78452 75.25236,-207.18068 12.10024,-21.59046 33.67648,-55.40461 47.09287,-73.8037 9.90083,-13.57786 24.20873,-32.29944 33.7306,-44.13575 5.60548,-6.968 11.35175,-14.168 12.76948,-16 3.62526,-4.68459 -21.36222,19.83696 -114.97421,112.83037 l -81.49983,80.96128 -4.79232,10.23872 c -8.23235,17.58834 -18.94586,45.41019 -28.69016,74.50538 -7.05739,21.07243 -9.80042,28 -11.08683,28 -0.94013,0 -7.18995,-1.95698 -13.8885,-4.34885 -6.69855,-2.39186 -18.01697,-6.11186 -25.15205,-8.26667 l -12.97289,-3.91781 -22.11623,21.4498 c -12.16393,11.7974 -21.84376,21.89068 -21.51074,22.42952 0.33304,0.53885 4.12314,1.09689 8.42246,1.24009 13.37001,0.44533 37.11253,2.33444 50.4836,4.01681 25.51505,3.21035 43.10599,7.74425 80.00001,20.61931 11.73334,4.09462 21.80441,7.31767 22.38017,7.16234 0.57577,-0.15534 3.52426,-11.7654 6.55221,-25.80016 z"
       transform="translate(-14.638502,15.440369)"
       id="path1293" />
    <path
       style="fill:#ffaaaa;stroke-width:1.06667"
       d="m 1095.0535,859.29977 c 0,-2.14318 -49.5304,-12.56231 -62.4,-13.12633 l -6.4,-0.28048 -0.5333,6.59039 -0.5333,6.59038 22.3476,0.11282 c 12.2912,0.0621 22.5533,0.31849 22.8047,0.56989 0.8293,0.82921 24.7143,0.38788 24.7143,-0.45667 z"
       transform="translate(-14.638502,15.440369)"
       id="path1289" />
    <path
       style="fill:#ffaaaa;stroke-width:1.06667"
       d="m 1370.2535,860.81896 c 0,-0.31737 -4.7984,-7.75174 -10.6631,-16.52081 -76.6575,-114.61932 -123.6363,-241.89713 -123.7259,-335.20519 -0.011,-7.59558 -0.4056,-11.46666 -1.1799,-11.46666 -0.6429,0 -6.5707,2.52 -13.1727,5.6 -11.7532,5.48311 -12.0237,5.68905 -12.9644,9.86666 l -0.9606,4.26667 -9.6,0.53333 c -5.28,0.29334 -10.2,0.92167 -10.9334,1.39629 -3.009,1.94751 -1.3993,35.40231 4.1857,86.99029 3.4069,31.46855 3.5769,32.41343 5.9964,33.33334 1.3696,0.52071 4.3678,0.94675 6.6627,0.94675 5.6103,0 8.2225,3.61752 6.7922,9.40609 l -0.9703,3.92724 -6.079,0.091 c -3.3435,0.05 -6.7747,0.66828 -7.6248,1.37383 -3.9727,3.29707 -10.2721,26.99153 -12.3717,46.53516 -3.4904,32.4881 -0.9698,85.83818 6.6519,140.8 l 2.3667,17.06666 42.6618,0.53334 c 71.0427,0.88814 134.9284,1.13719 134.9284,0.526 z"
       transform="translate(-14.638502,15.440369)"
       id="path1287" />
    <path
       style="display:inline;fill:#ffaaaa;stroke-width:1.06667"
       d="m 853.09818,860.02629 c -1.95774,-15.70977 -2.16996,-71.02911 -0.3468,-90.4 4.73583,-50.31775 14.86074,-98.26486 31.08399,-147.19999 23.43851,-70.69896 54.02005,-132.15729 100.05034,-201.06667 9.01332,-13.49333 15.21954,-23.33333 13.7916,-21.86666 -2.07454,2.13078 -35.05514,39.14059 -110.79837,124.3345 -1.5153,1.70437 -2.23933,5.37573 -3.20795,16.26667 -0.94224,10.59435 -1.61182,14.06549 -2.71321,14.06549 -0.80425,0 -3.86288,-2.24549 -6.79696,-4.98998 -5.2592,-4.91937 -5.36329,-4.96088 -7.35561,-2.93334 -6.02098,6.12745 -70.4183,78.96458 -70.4183,79.64721 0,0.4452 3.504,0.80944 7.78666,0.80944 4.63407,0 8.3049,0.51823 9.06667,1.28 1.43459,1.43459 1.7078,9.19471 0.39644,11.26025 -0.57121,0.89973 -3.10765,1.25032 -7.71699,1.06666 l -6.86612,-0.27357 -2.48699,7.44668 c -12.65305,37.88637 -11.415,93.17392 3.59527,160.55331 5.43202,24.38371 5.23275,23.86033 10.37185,27.24081 7.61387,5.00838 23.23981,17.91366 33.33218,27.52866 5.27323,5.02381 9.84421,9.15586 10.15771,9.18236 0.31351,0.0264 -0.10293,-5.35183 -0.92541,-11.95183 z"
       transform="translate(-14.638502,15.440369)"
       id="path1281" />
  </g>
  <g
     inkscape:groupmode="layer"
     id="layer5"
     inkscape:label="Sail 1"
     style="display:inline">
    <path
       style="display:inline;fill:#ffcc00;stroke-width:1.06667"
       d="m 598.25357,222.06787 c 25.08,-20.49535 45.6,-37.67917 45.6,-38.18626 0,-0.50708 -1.14675,-0.92197 -2.54834,-0.92197 -2.33907,0 -26.35344,-1.25826 -50.54149,-2.6482 l -9.88985,-0.56829 -3.80103,8.27491 c -9.13844,19.89453 -16.94979,39.12291 -21.83107,53.73924 -5.48566,16.42607 -6.19855,19.7682 -3.92155,18.38487 0.73333,-0.44551 21.85333,-17.57894 46.93333,-38.0743 z"
       transform="translate(-14.638502,15.440369)"
       id="path1411" />
    <path
       style="fill:#ffcc00;stroke-width:1.06667"
       d="m 1164.5859,246.69326 c -0.1839,-48.2535 -0.6639,-88.04567 -1.0667,-88.42705 -0.4028,-0.38139 -18.2523,-1.98825 -39.6657,-3.5708 -21.4133,-1.58254 -43.4933,-3.25683 -49.0666,-3.72064 l -10.1334,-0.84329 -5.0754,5.29803 c -16.8691,17.60884 -53.5462,67.49195 -74.35705,101.13013 -13.15286,21.25993 -35.6484,62.16351 -34.70603,63.10588 0.27381,0.27382 8.62566,-1.53939 18.55966,-4.02935 66.54872,-16.68043 113.85382,-14.55337 169.06512,7.60198 8.035,3.2243 16.8675,7.03832 19.6281,8.47559 2.7604,1.43728 5.499,2.63571 6.0856,2.66318 0.7055,0.0331 0.9535,-29.66003 0.7324,-87.68366 z"
       transform="translate(-14.638502,15.440369)"
       id="path1401" />
    <path
       style="display:inline;fill:#ffcc00;stroke-width:1.06667"
       d="m 1002.5749,189.70993 c 26.5166,-21.51399 48.412,-39.27399 48.6564,-39.46667 0.2445,-0.19266 0.2445,-0.52955 0,-0.74865 -0.6184,-0.55433 -54.88803,-4.00406 -66.42864,-4.22264 l -9.45091,-0.179 -3.68539,9.06667 c -4.88206,12.01072 -11.18774,33.68728 -15.09911,51.90511 -4.43303,20.6475 -4.74639,22.76155 -3.37402,22.76155 0.64331,0 22.86506,-17.60237 49.38167,-39.11637 z"
       transform="translate(-14.638502,15.440369)"
       id="path1413" />
    <path
       style="display:inline;fill:#ffcc00;stroke-width:1.06667"
       d="m 756.92024,171.68627 c 0,-0.33368 -1.17619,-5.25368 -2.61375,-10.93333 -5.58939,-22.08298 -8.80442,-44.91995 -9.7881,-69.526641 -0.36352,-9.09333 -1.10571,-17.013331 -1.64934,-17.599998 -0.63792,-0.688433 -23.83889,-1.066667 -65.42974,-1.066667 -55.88767,0 -64.64514,0.212378 -65.97674,1.6 -2.03075,2.11617 -11.44071,23.973475 -16.16825,37.555336 -5.53049,15.88869 -14.16334,51.54429 -12.80795,52.89969 0.28604,0.28603 7.85616,-1.47419 16.82251,-3.91161 32.54278,-8.84647 41.13878,-10.14328 67.47803,-10.1799 20.4777,-0.0285 24.87372,0.27449 34.51365,2.37862 13.81871,3.01625 30.3441,8.51075 43.72096,14.53675 10.73293,4.83496 11.89872,5.25113 11.89872,4.24775 z"
       transform="translate(-14.638502,15.440369)"
       id="path1423" />
    <path
       style="display:inline;fill:#ffcc00;stroke-width:1.06667"
       d="m 1021.5469,61.791082 c 19.3086,-14.429369 35.1066,-26.618952 35.1066,-27.087961 0,-1.286464 -7.0434,-1.781784 -28.8884,-2.031541 -15.2478,-0.17433 -20.0695,0.09428 -20.8954,1.164049 -1.7554,2.274043 -14.78212,32.639712 -18.36473,42.808995 -3.37978,9.593525 -3.80263,11.381675 -2.6914,11.381675 0.34468,0 16.42463,-11.805846 35.73333,-26.235217 z"
       transform="translate(-14.638502,15.440369)"
       id="path1439" />
    <path
       style="display:inline;fill:#ffcc00;stroke-width:1.06667"
       d="m 1159.1655,127.32779 c -2.9776,-18.03694 -4.1973,-33.316941 -5.0106,-62.768155 -0.3807,-13.786667 -0.9943,-25.372735 -1.3634,-25.746818 -0.3692,-0.374084 -18.8191,-1.54086 -40.9997,-2.592835 l -40.3285,-1.912683 -17.6104,17.526168 c -24.1396,24.024237 -69.73266,73.637393 -69.73266,75.881223 0,0.26542 5.64,-1.14481 12.53333,-3.13385 27.45063,-7.92074 60.97643,-11.39438 86.11303,-8.92223 24.5637,2.4158 44.0166,8.01629 64.9487,18.69876 7.116,3.6316 13.0926,6.49843 13.2812,6.37074 0.1887,-0.12769 -0.6352,-6.15784 -1.831,-13.40032 z"
       transform="translate(-14.638502,15.440369)"
       id="path1433" />
    <path
       style="fill:#ffcc00;stroke-width:1.06667"
       d="m 767.16762,333.6263 c -2.79417,-18.41897 -4.55321,-56.57729 -4.78064,-103.70459 -0.10048,-20.81086 -0.5966,-38.25193 -1.10259,-38.75792 -0.93624,-0.93624 -99.64689,-7.43595 -104.76425,-6.89833 -2.77075,0.29109 -24.00671,19.10704 -81.9999,72.65535 -33.23609,30.6887 -30.3109,27.04084 -31.79861,39.65464 -2.09021,17.7223 -2.77058,31.45085 -1.55866,31.45085 0.60001,0 4.87086,-1.73643 9.49077,-3.85873 48.86876,-22.44941 95.49245,-27.53408 141.65237,-15.44829 16.74802,4.38504 36.8897,11.89619 56.0808,20.91341 9.09333,4.27264 17.17552,7.8191 17.96042,7.88102 1.05573,0.0833 1.26919,-0.92832 0.82029,-3.88741 z"
       transform="translate(-14.638502,15.440369)"
       id="path1393" />
    <path
       style="display:inline;fill:#ffcc00;stroke-width:1.06667"
       d="m 565.18278,397.22213 c 75.74808,-55.24052 68.50259,-49.86252 67.91524,-50.41044 -0.91895,-0.85726 -92.33342,-4.54579 -94.43037,-3.81022 -2.06307,0.72368 -17.8477,27.48928 -25.45191,43.15816 -7.15353,14.74022 -11.6756,28.00333 -15.00756,44.01678 -2.88839,13.88161 -3.11556,16.24989 -1.55873,16.24989 0.58439,0 31.42439,-22.14188 68.53333,-49.20417 z"
       transform="translate(-14.638502,15.440369)"
       id="path1377" />
    <path
       style="fill:#ffcc00;stroke-width:1.06667"
       d="m 568.3147,416.73703 c 23.06638,-23.1607 39.05887,-39.86046 35.53887,-37.11055 -81.4653,63.6426 -109.35219,85.87447 -110.07249,87.75156 -0.30566,0.79655 -0.30202,2.10947 0.009,2.91761 0.43353,1.12978 4.26421,-0.0234 16.57525,-4.98944 l 16.0114,-6.4588 41.93887,-42.11038 z"
       transform="translate(-14.638502,15.440369)"
       id="path1373" />
    <path
       style="display:inline;fill:#ffcc00;stroke-width:1.06667"
       d="m 779.32024,475.46381 c 0,-0.45603 -0.9413,-7.53603 -2.09179,-15.73333 -3.3584,-23.92896 -5.40926,-50.32205 -6.11444,-78.68841 -0.5643,-22.69908 -0.8989,-26.57533 -2.35901,-27.32815 -0.93578,-0.48249 -9.86143,-1.19894 -19.83476,-1.59211 -9.97333,-0.39317 -21.25333,-0.93513 -25.06667,-1.20432 -3.81333,-0.26921 -22.77333,-1.25881 -42.13333,-2.1991 l -35.2,-1.70966 -17.47381,17.9596 c -25.39425,26.10023 -74.71692,82.20037 -74.77425,85.04904 -0.0107,0.50843 1.06139,0.62421 2.38139,0.25731 6.88898,-1.91483 29.6798,-6.13275 41.86667,-7.74832 21.58014,-2.86078 66.47345,-2.56962 86.93333,0.56382 18.47663,2.82971 33.85272,6.47908 48.44763,11.49863 12.12527,4.17016 34.7115,15.01849 39.55237,18.9973 3.17457,2.60923 5.86667,3.47088 5.86667,1.8777 z"
       transform="translate(-14.638502,15.440369)"
       id="path1367" />
    <path
       style="display:inline;fill:#ffcc00;stroke-width:1.06667"
       d="m 909.26844,478.19109 15.28154,-4.56479 58.0503,-65.01484 c 31.92762,-35.75815 57.69092,-65.3263 57.25172,-65.707 -0.7644,-0.66265 -49.93212,-3.7036 -80.37423,-4.97103 l -14.50915,-0.60408 -6.95144,11.61515 c -13.87593,23.18521 -33.72268,80.86939 -45.00812,130.81513 -0.36454,1.61333 -0.29365,2.94749 0.15753,2.96479 0.45118,0.0173 7.69701,-2.02269 16.10185,-4.53333 z"
       transform="translate(-14.638502,15.440369)"
       id="path1357" />
    <path
       style="fill:#ffcc00;stroke-width:1.06667"
       d="m 1177.1869,499.46859 c 0,-0.74674 -2.1455,-14.06674 -4.7677,-29.6 -7.6924,-45.56666 -10.446,-68.34432 -13.15,-108.77562 l -0.749,-11.2 -44.8,-2.80851 c -24.64,-1.54469 -49.3631,-3.11862 -54.9402,-3.49762 l -10.1402,-0.68909 -11.2798,14.16427 c -23.2342,29.17562 -42.4085,55.73599 -60.28393,83.50571 -13.51441,20.9948 -14.4804,22.68114 -13.38155,23.36026 0.53746,0.33218 6.43312,-0.22485 13.10146,-1.23783 17.56551,-2.66837 66.92412,-2.6358 84.12422,0.0555 35.4595,5.54835 71.1931,16.78893 104,32.71497 11.949,5.80061 12.2667,5.90441 12.2667,4.00795 z"
       transform="translate(-14.638502,15.440369)"
       id="path1343" />
    <path
       style="fill:#ffcc00;stroke-width:1.06667"
       d="m 495.53713,487.68213 c -0.26596,-0.23231 -1.70787,-0.71504 -3.20425,-1.07273 -2.48746,-0.59459 -3.01323,-0.0571 -6.13333,6.27015 -1.87695,3.80626 -3.41264,7.26659 -3.41264,7.68961 0,0.42303 2.9776,-2.20846 6.61688,-5.84775 3.6393,-3.63929 6.3993,-6.80696 6.13334,-7.03928 z"
       transform="translate(-14.638502,15.440369)"
       id="path1341" />
    <path
       style="fill:#000000;stroke-width:1.06667"
       d="m 897.18691,500.8263 c -4.71813,-1.20056 -6.93334,-1.20056 -6.93334,0 0,0.58666 2.28,1.00988 5.06667,0.94047 4.52261,-0.11266 4.72305,-0.21365 1.86667,-0.94047 z"
       transform="translate(-14.638502,15.440369)"
       id="path1339" />
    <path
       style="fill:#ffcc00;stroke-width:1.06667"
       d="m 892.06946,510.21705 c 4.41953,-4.28357 4.50919,-6.19075 0.29105,-6.19075 -3.33764,0 -5.30694,2.79651 -5.30694,7.5361 0,2.85452 0.94395,2.60134 5.01589,-1.34535 z"
       transform="translate(-14.638502,15.440369)"
       id="path1333" />
    <path
       style="fill:#ffcc00;stroke-width:1.06667"
       d="m 791.65457,622.10129 c 0.29371,-0.76543 -0.90814,-11.44543 -2.6708,-23.73333 -4.36333,-30.41789 -6.2007,-49.04447 -7.57002,-76.74166 -1.35029,-27.3124 -1.41834,-27.79556 -3.92313,-27.85373 -27.55816,-0.63989 -62.91964,-1.64448 -70.70371,-2.00863 -5.57334,-0.26072 -24.77334,-0.74267 -42.66667,-1.07098 -17.89333,-0.3283 -37.09333,-0.80921 -42.66667,-1.06868 -5.57333,-0.25946 -25.49333,-0.7375 -44.26666,-1.0623 -18.77334,-0.3248 -38.04155,-0.84905 -42.81825,-1.16499 l -8.68492,-0.57444 -4.75139,6.20187 c -5.94924,7.7654 -23.32972,33.28588 -30.37567,44.60188 -16.74426,26.89171 -41.91918,73.40614 -40.49843,74.82689 0.3128,0.31281 6.74868,-1.37964 14.30194,-3.76098 119.67216,-37.72944 203.49051,-35.60618 307.69285,7.7944 17.72841,7.38392 18.80433,7.69211 19.60153,5.61468 z"
       transform="translate(-14.638502,15.440369)"
       id="path1317" />
    <path
       style="fill:#ffcc00;stroke-width:1.06667"
       d="m 1192.1202,635.27335 c 0,-0.56079 -1.4241,-13.64079 -3.1646,-29.06667 -3.4401,-30.48959 -5.356,-56.99756 -5.3638,-74.21385 0,-7.82948 -0.3864,-11.08979 -1.3383,-11.39664 -0.7333,-0.2364 -15.0133,-1.20069 -31.7333,-2.14287 -16.72,-0.94218 -33.52,-1.94043 -37.3333,-2.21833 -6.3266,-0.46107 -56.1754,-3.36005 -127.46666,-7.41292 -15.25333,-0.86713 -32.14608,-1.86934 -37.53945,-2.22711 l -9.8061,-0.65051 -8.11216,16.19729 c -16.76331,33.47076 -40.82296,91.29277 -38.82016,93.29559 0.32698,0.32696 3.43326,-0.38556 6.90285,-1.5834 18.23709,-6.29615 55.0713,-14.57759 78.84169,-17.72597 19.6176,-2.59835 63.38929,-2.59129 81.06659,0.0131 35.5399,5.23601 72.2429,16.08743 117.3334,34.69011 12.9271,5.33328 16.5333,6.30219 16.5333,4.4422 z"
       transform="translate(-14.638502,15.440369)"
       id="path1309" />
    <path
       style="fill:#ffcc00;stroke-width:1.06667"
       d="m 850.89763,877.04368 c -1.36906,-1.36906 -2.75739,-0.31094 -1.74383,1.32904 0.39262,0.63527 1.2025,0.85303 1.79975,0.48391 0.72854,-0.45026 0.71014,-1.04689 -0.0559,-1.81295 z"
       transform="translate(-14.638502,15.440369)"
       id="path1277" />
    <path
       style="display:inline;fill:#ffcc00;stroke-width:1.06667"
       d="m 816.13582,882.42629 c -0.7656,-3.08 -5.23557,-20.72 -9.93328,-39.2 -9.26768,-36.45753 -13.9324,-59.30017 -17.53496,-85.86666 -3.40958,-25.14342 -3.39663,-68.91375 0.026,-88 1.31507,-7.33333 3.33257,-16.4408 4.48333,-20.23882 1.15078,-3.798 1.74379,-7.22776 1.3178,-7.62168 -0.42599,-0.39392 -11.57452,-1.01243 -24.77452,-1.37447 -13.2,-0.36202 -31.2,-0.88626 -40,-1.16495 -8.8,-0.27869 -26.8,-0.75621 -40,-1.06115 -22.74724,-0.52549 -36.95423,-0.8784 -85.33333,-2.11972 -11.44,-0.29353 -32.08,-0.78449 -45.86667,-1.09104 -13.78667,-0.30655 -32.50667,-0.78309 -41.6,-1.05899 -9.09333,-0.27589 -29.80317,-0.80899 -46.02187,-1.18466 l -29.48853,-0.68304 -1.61593,2.53259 c -2.31937,3.63507 -12.45547,29.86399 -18.29157,47.33259 -8.21309,24.5834 -15.59231,51.71057 -16.56784,60.90596 -0.5041,4.75161 -0.97635,24.19161 -1.04946,43.2 -0.0731,19.00839 -0.3109,36.00071 -0.52843,37.76071 -0.76293,6.17273 -0.84101,22.69807 -0.11281,23.87633 1.25794,2.03538 7.29029,1.32103 17.20968,-2.03797 41.06023,-13.90425 82.1958,-20.87051 128.46676,-21.75569 74.39591,-1.42323 144.93808,13.70692 232.53333,49.87462 12.02667,4.96576 24.50667,10.27212 27.73334,11.79192 8.32243,3.91997 8.59572,3.80923 6.94891,-2.81588 z"
       transform="translate(-14.638502,15.440369)"
       id="path1273" />
    <path
       style="fill:#ffcc00;stroke-width:1.06667"
       d="m 1195.3202,892.90051 c 0,-0.83918 -1.4142,-10.55918 -3.1427,-21.6 -8.9967,-57.46744 -11.2058,-83.22985 -11.2336,-131.00755 -0.022,-37.43136 0.1593,-41.53976 2.3679,-53.68429 1.3154,-7.23302 3.8486,-17.4998 5.6294,-22.81506 1.7808,-5.31525 3.0219,-9.88 2.758,-10.14387 -0.2639,-0.26387 -20.7971,-1.61476 -45.6293,-3.00197 -47.0265,-2.62704 -61.0562,-3.4236 -74.483,-4.22892 -9.5225,-0.57115 -17.0621,-0.98217 -68.8,-3.75065 -21.70666,-1.16151 -44.50666,-2.36087 -50.66666,-2.66524 -6.16,-0.30438 -13.84,-0.77162 -17.06667,-1.03834 -7.08691,-0.5858 -40.25234,-2.08275 -46.86168,-2.11515 l -4.72836,-0.0231 -5.03898,17.73041 c -9.46525,33.30491 -15.88876,65.66039 -20.30504,102.27716 -4.23584,35.12073 -3.05668,112.28312 1.77717,116.29487 1.02688,0.85223 2.46986,0.60884 5.47561,-0.92358 20.47528,-10.43892 61.70768,-23.01559 89.94795,-27.43584 17.38249,-2.72075 58.59216,-3.28207 77.86666,-1.06062 44.2598,5.10112 88.5385,18.42101 145.0815,43.64328 8.4984,3.79095 15.8118,6.93352 16.2518,6.98348 0.44,0.0499 0.8,-0.59577 0.8,-1.43495 z"
       transform="translate(-14.638502,15.440369)"
       id="path1267" />
  </g>
  <g
     inkscape:groupmode="layer"
     id="layer4"
     inkscape:label="Body"
     style="display:inline;fill:#803300">
    <path
       style="display:inline;fill:#803300;stroke-width:1.06667"
       d="m 1089.1132,4.5596358 c 0.4036,-7.186667 0.9785,-13.9098013 1.2778,-14.9402988 0.7516,-2.588484 -3.8935,-4.446248 -5.6224,-2.248604 -1.1301,1.436481 -3.2239,26.06726 -2.3658,27.831034 0.2113,0.434268 1.2241,0.647271 2.2507,0.473342 1.0267,-0.173931 1.8667,0.193934 1.8667,0.817478 0,0.623543 0.4183,1.133715 0.9296,1.133715 0.5113,0 1.2598,-5.88 1.6634,-13.0666662 z"
       transform="translate(-14.638502,15.440369)"
       id="path1451" />
    <path
       style="fill:#803300;stroke-width:1.06667"
       d="m 1066.6958,28.097407 c 2.6443,-1.945774 4.8266,-3.897772 4.8495,-4.337772 0.041,-0.782133 -14.064,-1.119647 -52.7584,-1.262467 -18.5857,-0.0686 -19.21003,-7.23e-4 -19.51361,2.121321 -0.1725,1.205702 0.57321,2.994763 1.65711,3.975692 1.6646,1.506459 5.0272,1.828706 21.6469,2.07448 10.8219,0.160037 24.094,0.442972 29.4934,0.628746 9.6667,0.332594 9.8909,0.283541 14.6251,-3.2 z"
       transform="translate(-14.638502,15.440369)"
       id="path1447" />
    <path
       style="fill:#803300;stroke-width:1.06667"
       d="m 1165.6683,31.981084 c 1.0439,-2.291186 0.9162,-3.01938 -0.823,-4.694042 -1.9034,-1.832928 -5.1101,-2.037097 -42.5918,-2.711931 l -40.5333,-0.729778 -3.5594,3.703575 c -1.9576,2.036965 -3.1576,3.940649 -2.6666,4.230407 0.4909,0.289759 17.9327,0.871437 38.7593,1.292618 20.8267,0.421181 38.0667,0.958215 38.3112,1.193409 0.2444,0.235194 3.0147,0.427626 6.1561,0.427626 5.0829,0 5.8478,-0.298611 6.9475,-2.711884 z"
       transform="translate(-14.638502,15.440369)"
       id="path1445" />
    <path
       style="fill:#803300;stroke-width:1.06667"
       d="m 679.44956,58.426301 c 0.29687,-1.026666 0.68921,-4.986666 0.87189,-8.799999 0.32634,-6.812705 0.28268,-6.939052 -2.50965,-7.262015 -3.36334,-0.389006 -3.87488,0.798225 -4.24136,9.843573 -0.21865,5.396349 0.0451,6.432733 1.81363,7.125029 3.09631,1.212094 3.47745,1.127101 4.06549,-0.906588 z"
       transform="translate(-14.638502,15.440369)"
       id="path1443" />
    <path
       style="fill:#803300;stroke-width:1.06667"
       d="m 756.61353,69.704888 c 1.81172,-1.503601 1.75436,-5.634514 -0.0996,-7.173177 C 754.92,61.208854 673.4613,61.066525 627.8536,62.30691 l -24,0.652725 -0.34854,2.458711 c -0.1917,1.352291 0.12764,3.032291 0.70963,3.733333 1.4338,1.727055 150.33321,2.267561 152.39887,0.553209 z"
       transform="translate(-14.638502,15.440369)"
       id="path1441" />
    <path
       style="fill:#803300;stroke-width:1.06667"
       d="m 1078.3837,138.38053 c 0.2875,-0.46518 0.8603,-5.0061 1.2729,-10.09093 l 0.7501,-9.24516 -2.8389,-1.29346 c -3.8247,-1.7427 -4.5944,-0.62178 -5.1438,7.49097 -0.4089,6.03875 -0.228,6.87671 1.5871,7.35136 1.618,0.42311 1.9204,1.17651 1.4388,3.58435 -0.4411,2.20547 -0.192,3.04864 0.9007,3.04864 0.8307,0 1.7456,-0.38059 2.0331,-0.84577 z"
       transform="translate(-14.638502,15.440369)"
       id="path1435" />
    <path
       style="fill:#803300;stroke-width:1.06667"
       d="m 1060.6412,141.66322 c 0.4895,-1.46848 -4.2654,-1.94725 -46.4413,-4.67625 l -35.52034,-2.29835 -2.61299,2.45478 c -4.72607,4.43991 -3.64419,5.01192 10.987,5.80902 7.48,0.40751 25.60003,1.5638 40.26663,2.56954 l 26.6667,1.82863 3.1417,-2.28721 c 1.7279,-1.25797 3.3086,-2.78804 3.5126,-3.40016 z"
       transform="translate(-14.638502,15.440369)"
       id="path1429" />
    <path
       style="fill:#803300;stroke-width:1.06667"
       d="m 1178.2798,154.66139 c 1.0203,-1.22952 1.0664,-2.26278 0.1871,-4.19285 -1.3477,-2.95776 -3.5469,-3.37468 -22.6134,-4.28701 -12.886,-0.61659 -77.9303,-4.69052 -81.6,-5.11086 -2.4507,-0.28073 -7.7491,5.28689 -6.2823,6.6016 0.522,0.4678 22.789,2.39244 49.4823,4.27696 26.6934,1.88451 49.0134,3.59489 49.6,3.80085 3.0367,1.06609 9.9982,0.39099 11.2263,-1.08869 z"
       transform="translate(-14.638502,15.440369)"
       id="path1427" />
    <path
       style="fill:#803300;stroke-width:1.06667"
       d="m 671.74637,161.6263 c 0.36477,-8.84602 0.31247,-9.07535 -2.14916,-9.42363 -3.49937,-0.49513 -4.08736,0.46775 -4.94038,8.0903 -0.74516,6.65861 -0.7427,6.66667 2.02534,6.66667 2.2998,0 2.7714,0.49009 2.7714,2.88 0,1.74539 0.37799,2.48079 0.95947,1.86666 0.5277,-0.55733 1.1277,-5.09333 1.33333,-10.08 z"
       transform="translate(-14.638502,15.440369)"
       id="path1421" />
    <path
       style="fill:#803300;stroke-width:1.06667"
       d="m 652.01956,178.10535 c 1.96203,-1.49652 3.56735,-3.11484 3.56735,-3.59627 0,-0.48143 -5.88,-1.19576 -13.06667,-1.58738 -7.18667,-0.39162 -15.70667,-0.91268 -18.93333,-1.15789 -3.22667,-0.24521 -12.10667,-0.71564 -19.73334,-1.0454 -7.62666,-0.32976 -17.72762,-0.87891 -22.44657,-1.22033 -7.29469,-0.52778 -8.8074,-0.34665 -10.09866,1.20924 -1.34637,1.62227 -1.19953,2.10458 1.29354,4.24905 2.57526,2.21514 4.28074,2.48571 20.23201,3.20986 9.58082,0.43493 22.93968,1.13969 29.68635,1.56612 23.67763,1.49657 25.53868,1.39393 29.49932,-1.627 z"
       transform="translate(-14.638502,15.440369)"
       id="path1417" />
    <path
       style="fill:#803300;stroke-width:1.06667"
       d="m 770.57357,188.07964 c 1.82676,-1.82676 1.58165,-4.52116 -0.58666,-6.44911 -2.14884,-1.91065 -2.74928,-1.96055 -62.5017,-5.19353 l -42.50171,-2.2996 -3.31026,3.31026 c -1.82065,1.82065 -3.09488,3.50824 -2.83163,3.75021 0.26325,0.24197 24.69565,1.95437 54.29424,3.80535 29.59859,1.85098 54.03859,3.58838 54.31111,3.86092 0.81212,0.81212 1.77045,0.57166 3.12661,-0.7845 z"
       transform="translate(-14.638502,15.440369)"
       id="path1415" />
    <path
       style="fill:#803300;stroke-width:1.06667"
       d="m 1065.3087,318.12011 c 0.3755,-4.81826 0.3817,-9.08651 0.014,-9.485 -0.368,-0.39848 -1.9496,-1.04062 -3.5147,-1.42696 -3.7269,-0.91998 -4.7737,1.10786 -5.3416,10.34736 l -0.4381,7.12921 2.9793,-0.59588 c 2.6989,-0.53978 2.9794,-0.31221 2.9794,2.41746 0,2.39385 0.2712,2.74206 1.3195,1.69381 0.7257,-0.72573 1.6268,-5.26173 2.0023,-10.08 z"
       transform="translate(-14.638502,15.440369)"
       id="path1403" />
    <path
       style="fill:#803300;stroke-width:1.06667"
       d="m 659.8891,320.64492 c 0.62963,-7.25116 0.88251,-13.8674 0.56196,-14.70275 -0.38011,-0.99055 -1.7911,-1.40235 -4.05681,-1.184 -3.40748,0.32839 -3.48734,0.45736 -4.17038,6.7348 -0.38301,3.52 -0.86301,9.98975 -1.06667,14.3772 l -0.37029,7.97722 3.2,0.63555 c 1.76,0.34956 3.55042,0.3454 3.97871,-0.01 0.42828,-0.35464 1.29386,-6.57759 1.92348,-13.82877 z"
       transform="translate(-14.638502,15.440369)"
       id="path1395" />
    <path
       style="fill:#803300;stroke-width:1.06667"
       d="m 1047.4708,335.95839 c 2.238,-2.67736 3.8997,-5.02156 3.6926,-5.20934 -0.2071,-0.18777 -14.0565,-1.12578 -30.7765,-2.08445 -16.72,-0.95866 -34.23999,-1.96461 -38.93333,-2.23544 -34.34913,-1.98212 -33.2901,-2.00349 -35.04405,0.70692 -0.88631,1.36962 -1.93601,3.81022 -2.33268,5.42355 l -0.72121,2.93334 9.44897,0.0888 c 5.19694,0.0489 10.64897,0.22541 12.11564,0.39226 1.46667,0.16686 9.86667,0.65668 18.66667,1.0885 16.42119,0.80581 58.21329,3.35847 59.24079,3.61843 0.3157,0.0799 2.4052,-2.0453 4.6431,-4.72266 z"
       transform="translate(-14.638502,15.440369)"
       id="path1389" />
    <path
       style="fill:#803300;stroke-width:1.06667"
       d="m 641.92957,341.21457 c 2.23153,-1.54646 4.05734,-3.22646 4.05734,-3.73334 0,-0.50688 -2.76,-0.94051 -6.13334,-0.96361 -3.37333,-0.0232 -9.49333,-0.25983 -13.6,-0.52603 -4.10666,-0.26621 -19.46666,-0.97202 -34.13333,-1.56848 -47.93917,-1.94955 -53.23505,-2.18555 -61.53686,-2.74231 -7.3894,-0.49558 -8.3154,-0.34119 -9.3306,1.55574 -0.93085,1.73933 -0.6383,2.49036 1.68072,4.31451 1.54428,1.21472 3.58304,2.22404 4.53059,2.24294 4.80226,0.0958 36.97958,1.43704 62.52282,2.6062 46.49834,2.12831 47.18322,2.11267 51.94266,-1.18562 z"
       transform="translate(-14.638502,15.440369)"
       id="path1387" />
    <path
       style="fill:#803300;stroke-width:1.06667"
       d="m 778.32312,349.22968 c 0.98922,-1.84836 0.84355,-2.63103 -0.79457,-4.26914 -2.37898,-2.37898 -4.45558,-2.59275 -39.80831,-4.09793 -14.37333,-0.61197 -29.49333,-1.33075 -33.6,-1.59729 -4.10667,-0.26655 -16.82667,-0.79653 -28.26667,-1.17776 l -20.8,-0.69312 -3.12224,3.30481 c -1.71722,1.81763 -2.91722,3.49385 -2.66666,3.72491 0.25057,0.23106 26.61557,1.6959 58.5889,3.2552 31.97334,1.5593 58.85334,2.99958 59.73334,3.20062 5.22554,1.19378 9.57163,0.52573 10.73621,-1.6503 z"
       transform="translate(-14.638502,15.440369)"
       id="path1383" />
    <path
       style="fill:#803300;stroke-width:1.06667"
       d="m 1179.5349,346.64775 c 1.043,-2.28914 0.9147,-3.02975 -0.8229,-4.75096 -1.8062,-1.78918 -6.1764,-2.36804 -35.6585,-4.72311 -18.48,-1.47621 -44.8085,-3.46542 -58.5078,-4.42046 l -24.9078,-1.73642 -3.6255,3.51399 c -1.994,1.93271 -3.6255,4.10163 -3.6255,4.81985 0,1.67447 1.8707,1.83648 67.1913,5.81905 29.6219,1.80603 54.0619,3.4876 54.3111,3.73682 1.3732,1.37317 4.5744,0.0924 5.6456,-2.25876 z"
       transform="translate(-14.638502,15.440369)"
       id="path1385" />
    <path
       style="fill:#803300;stroke-width:1.06667"
       d="m 647.69489,475.86288 c 0.29937,-0.78016 1.12233,-8.5955 1.82881,-17.36743 l 1.28449,-15.94895 -3.85194,-0.22728 c -2.12469,-0.12537 -4.32869,0.38578 -4.91514,1.1399 -1.41784,1.82323 -3.64433,30.86802 -2.47383,32.27146 1.39469,1.67223 7.49855,1.77159 8.12761,0.1323 z"
       transform="translate(-14.638502,15.440369)"
       id="path1363" />
    <path
       style="fill:#803300;stroke-width:1.06667"
       d="m 503.4975,480.51814 c 2.14069,-2.3695 4.35654,-4.02116 4.92412,-3.67039 0.56757,0.35078 1.03195,0.0643 1.03195,-0.63664 0,-2.07597 -26.55909,-0.49144 -28.72678,1.71385 -1.52272,1.54912 -1.40404,1.93604 1.31959,4.30179 2.5431,2.20892 4.08723,2.59955 10.27589,2.59955 7.15505,0 7.35148,-0.0757 11.17523,-4.30816 z"
       transform="translate(-14.638502,15.440369)"
       id="path1355" />
    <path
       style="fill:#803300;stroke-width:1.06667"
       d="m 916.36779,482.71255 c 2.28094,-2.33591 3.93836,-4.44105 3.68314,-4.6781 -0.25521,-0.23706 -5.98402,1.35874 -12.73069,3.54622 -13.029,4.2244 -13.16709,4.9354 -1.01648,5.2337 5.57281,0.13681 6.15801,-0.10165 10.06403,-4.10182 z"
       transform="translate(-14.638502,15.440369)"
       id="path1353" />
    <path
       style="fill:#803300;stroke-width:1.06667"
       d="m 798.4187,486.7699 c -0.53713,-1.00363 -1.37823,-2.07301 -1.86909,-2.37638 -0.95517,-0.59033 -15.39525,-1.26815 -47.09604,-2.21073 -29.14568,-0.86659 -52.05348,-1.58929 -68.26666,-2.15368 -7.92,-0.27569 -24.24,-0.75855 -36.26667,-1.073 -12.02667,-0.31445 -27.38667,-0.79123 -34.13333,-1.05951 -6.74667,-0.26828 -26.92256,-0.80065 -44.83532,-1.18304 l -32.56864,-0.69527 -3.02113,3.9609 c -1.66161,2.17849 -2.60573,4.3463 -2.09802,4.81735 0.50771,0.47105 18.20311,1.16045 39.32311,1.532 21.12,0.37154 43.92,0.89446 50.66666,1.16204 6.74667,0.26757 24.02667,0.74365 38.4,1.05796 72.21409,1.57912 138.87754,3.69638 139.6779,4.43623 1.14995,1.06301 3.01314,-4.48478 2.08723,-6.21487 z"
       transform="translate(-14.638502,15.440369)"
       id="path1351" />
    <path
       style="fill:#803300;stroke-width:1.06667"
       d="m 906.10078,494.34317 c 1.96931,-2.37124 3.40931,-4.47684 3.2,-4.67911 -0.2093,-0.20227 -3.79963,-0.52284 -7.97851,-0.71238 -8.65131,-0.39238 -11.0687,0.8184 -11.0687,5.5439 0,2.76373 0.36822,3.04122 4.53334,3.41636 2.49333,0.22458 5.25333,0.48352 6.13333,0.57545 0.88,0.0919 3.21124,-1.77299 5.18054,-4.14422 z"
       transform="translate(-14.638502,15.440369)"
       id="path1345" />
    <path
       style="fill:#803300;stroke-width:1.06667"
       d="m 1235.3202,494.30238 c 7.6511,-3.69855 9.0893,-5.54258 6.6975,-8.5872 -1.2275,-1.5626 -3.3673,-0.81851 -21.3642,7.42934 -11,5.04121 -20,9.77687 -20,10.52367 0,0.7468 0.6,1.13773 1.3334,0.86875 0.7333,-0.26899 2.5333,0.13769 4,0.90373 2.8147,1.4701 4.8479,0.69805 29.3333,-11.13829 z"
       transform="translate(-14.638502,15.440369)"
       id="path1335" />
    <path
       style="fill:#803300;stroke-width:1.06667"
       d="m 1052.5944,478.4263 0.3258,-14.4 h -4.2667 -4.2666 l -1.1992,14.4 c -0.6595,7.92 -0.8995,14.72306 -0.5333,15.11792 1.1711,1.26278 7.0204,1.53575 8.34,0.38921 0.8372,-0.72744 1.386,-6.04562 1.6,-15.50713 z"
       id="path1347"
       transform="translate(-14.638502,15.440369)" />
    <path
       style="fill:#803300;stroke-width:1.06667"
       d="m 1205.806,512.73833 c 0.6882,-4.85959 -2.4406,-6.57825 -11.9845,-6.58298 -9.754,-0.005 -28.4799,-1.15012 -130.768,-7.99792 -39.6,-2.65107 -81.95664,-5.41556 -94.12595,-6.14331 l -22.12604,-1.3232 -2.3753,4.47748 c -1.30641,2.4626 -2.09087,4.76189 -1.74324,5.10951 0.34763,0.34763 7.53323,1.08682 15.96799,1.64265 36.0534,2.37581 188.79074,11.16923 214.80254,12.36664 8.2134,0.37809 15.0509,0.78161 15.1946,0.89671 0.1437,0.1151 3.9837,0.17172 8.5333,0.12583 7.8249,-0.0789 8.2912,-0.21795 8.6246,-2.57141 z"
       transform="translate(-14.638502,15.440369)"
       id="path1331" />
    <path
       style="fill:#803300;stroke-width:1.06667"
       d="m 637.62404,615.49296 c 0.38709,-3.52 0.86709,-11.64174 1.06666,-18.0483 l 0.36287,-11.64829 -3.62398,-0.9563 c -2.64645,-0.69835 -3.97304,-0.57742 -4.91809,0.4483 -0.76109,0.82608 -1.81552,8.14412 -2.56003,17.76757 -1.4414,18.63111 -1.15816,19.68592 5.14414,19.15762 l 3.82463,-0.3206 z"
       transform="translate(-14.638502,15.440369)"
       id="path1319" />
    <path
       style="fill:#803300;stroke-width:1.06667"
       d="m 1041.8712,623.49296 c 0.3764,-3.81333 0.8564,-11.24736 1.0667,-16.52006 l 0.3823,-9.58672 -4.5865,-0.62539 c -2.5226,-0.34396 -4.7637,-0.33871 -4.9802,0.0116 -0.2166,0.35037 -0.9755,7.46094 -1.6865,15.80127 -1.4859,17.43098 -1.1131,18.71035 5.2952,18.17317 l 3.8247,-0.32056 z"
       transform="translate(-14.638502,15.440369)"
       id="path1311" />
    <path
       style="fill:#803300;stroke-width:1.06667"
       d="m 810.87995,637.28241 c 2.05193,-1.70295 1.89449,-4.5823 -0.35971,-6.57847 -2.03632,-1.80324 -11.7415,-2.43875 -53.06667,-3.47489 -12.32,-0.30891 -30.08,-0.7882 -39.46666,-1.06512 -9.38667,-0.27692 -29.06667,-0.75788 -43.73334,-1.06879 -14.66666,-0.31091 -33.38666,-0.79214 -41.6,-1.0694 -8.21333,-0.27725 -28.13333,-0.76373 -44.26666,-1.08108 -16.13334,-0.31734 -34.13334,-0.79145 -40,-1.05359 -12.97344,-0.57965 -74.44372,-1.98272 -90.64801,-2.06903 l -11.71468,-0.0624 -1.83409,3.73333 c -1.00875,2.05334 -1.85714,4.26871 -1.88532,4.92305 -0.0357,0.83115 8.7093,1.39864 29.01543,1.88289 15.98667,0.38125 36.02667,0.91874 44.53333,1.19444 8.50667,0.27569 27.22667,0.75307 41.6,1.06086 29.77297,0.63755 61.14401,1.38948 89.06667,2.13485 26.00877,0.69429 72.91302,1.75809 112.42255,2.54978 17.95456,0.35977 36.64639,0.79815 41.53742,0.97419 5.68253,0.20452 9.43679,-0.13143 10.39974,-0.93061 z"
       transform="translate(-14.638502,15.440369)"
       id="path1307" />
    <path
       style="fill:#803300;stroke-width:1.06667"
       d="m 1207.7603,649.51284 c 1.2961,-1.96318 1.2441,-2.53031 -0.4117,-4.49289 -2.1094,-2.50008 -6.1315,-2.92069 -57.8951,-6.05437 -14.3733,-0.87013 -30.2133,-1.83464 -35.2,-2.14337 -7.6609,-0.47428 -62.3407,-3.32393 -102.3999,-5.33658 -6.16,-0.30949 -15.28003,-0.78143 -20.26669,-1.04875 -4.98667,-0.26733 -16.02667,-0.75701 -24.53334,-1.08816 -8.50666,-0.33116 -18.10666,-0.7985 -21.33333,-1.03854 -3.22667,-0.24003 -15.22667,-0.76434 -26.66667,-1.16513 -34.51878,-1.20932 -31.19923,-1.41658 -32.87913,2.05278 -2.50887,5.18136 -1.49603,5.44195 25.41247,6.53839 8.50666,0.34661 18.82666,0.85438 22.93333,1.12837 4.10667,0.27398 17.30667,0.98091 29.33333,1.57094 12.02667,0.59004 25.46667,1.30558 29.86667,1.59011 4.4,0.28453 17.59996,1.00438 29.33326,1.59965 11.7334,0.59529 24.6934,1.30336 28.8,1.57351 4.1067,0.27014 12.5067,0.75589 18.6667,1.07944 6.16,0.32354 15.04,0.81834 19.7333,1.09952 4.6934,0.2812 30.8453,1.74404 58.1153,3.25079 27.2701,1.50674 49.8131,2.97046 50.0953,3.25273 1.367,1.36708 7.9348,-0.30621 9.2962,-2.36844 z"
       transform="translate(-14.638502,15.440369)"
       id="path1303" />
    <path
       style="fill:#803300;stroke-width:1.06667"
       d="m 1388.5599,870.2949 c 0.3886,-0.22668 0.3543,-1.72985 -0.076,-3.34037 l -0.7822,-2.92824 -67.6575,-0.61069 c -37.2116,-0.33588 -80.8574,-0.57588 -96.9908,-0.53333 l -29.3333,0.0773 0.3045,3.2 c 0.1675,1.76 0.5316,3.84982 0.809,4.64404 0.4219,1.20757 16.2669,1.31788 96.7621,0.6737 52.9418,-0.42368 96.5756,-0.9558 96.9641,-1.18246 z"
       transform="translate(-14.638502,15.440369)"
       id="path1285" />
    <path
       style="fill:#803300;stroke-width:1.06667"
       d="m 1130.2535,871.21586 c 0,-0.44574 -5.4,-2.62931 -12,-4.8524 l -12,-4.04195 -40.5333,0.31905 -40.5333,0.31907 -0.3462,3.02343 c -0.7326,6.39755 -3.8466,6.04323 53.1127,6.04323 28.7651,0 52.3001,-0.36469 52.3001,-0.81043 z"
       transform="translate(-14.638502,15.440369)"
       id="path1283" />
    <path
       style="fill:#803300;stroke-width:1.06667"
       d="m 619.59914,855.02519 c 1.0334,-13.16393 1.5134,-24.26329 1.06667,-24.66523 -1.56061,-1.40414 -9.77186,-1.88414 -10.71874,-0.62657 -1.23645,1.64213 -4.73664,46.75321 -3.70408,47.73866 1.05127,1.00331 5.42518,1.81296 8.81058,1.63095 l 2.66667,-0.14338 z"
       transform="translate(-14.638502,15.440369)"
       id="path1275" />
    <path
       style="fill:#803300;stroke-width:1.06667"
       d="m 1306.9711,950.43575 c 1.8781,-10.17689 6.6609,-19.43728 13.1965,-25.55054 6.5137,-6.09276 20.1578,-12.72138 29.8193,-14.48679 3.8133,-0.6968 7.6533,-1.62648 8.5333,-2.06594 1.6802,-0.8391 4.8043,-19.47324 3.7349,-22.27766 -0.4351,-1.14089 -3.0273,-1.30949 -12.5416,-0.81571 -15.2496,0.79143 -31.3375,1.50449 -50.9266,2.25724 -8.5067,0.32689 -19.3067,0.80642 -24,1.06562 -4.6934,0.25921 -16.6934,0.7638 -26.6667,1.12131 -19.7452,0.70781 -21.6406,0.96338 -21.5747,2.90889 0.024,0.71543 -0.031,2.89211 -0.124,4.83703 l -0.168,3.53626 -14.6666,-0.57601 c -8.0667,-0.31681 -42.9867,-0.83204 -77.6,-1.14495 -34.6134,-0.31292 -77.8134,-0.80249 -96,-1.08794 -18.1867,-0.28545 -49.62666,-0.76729 -69.86666,-1.07077 -20.24,-0.30347 -45.92,-0.77963 -57.06667,-1.05813 -11.14666,-0.27851 -31.30666,-0.75917 -44.8,-1.06815 -13.49333,-0.30897 -31.01333,-0.78771 -38.93333,-1.06386 -7.92,-0.27614 -22.08,-0.75773 -31.46667,-1.07019 -9.38666,-0.31246 -22.10666,-0.79265 -28.26666,-1.0671 -6.16,-0.27445 -17.68,-0.77178 -25.6,-1.10519 -78.48418,-3.30393 -160.60354,-9.46324 -213.86667,-16.04093 -80.78585,-9.97657 -149.93342,-26.12905 -203.73334,-47.59093 -22.1124,-8.82109 -61.01789,-28.2139 -100.26667,-49.97889 -80.87836,-44.85022 -121.86097,-66.65406 -173.441314,-92.2754 -16.19272,-8.04336 -29.95613,-14.44049 -30.58535,-14.21584 -0.77694,0.27739 -0.67217,1.52338 0.32652,3.88313 1.13887,2.69093 4.90988,5.7187 16.71869,13.42354 20.43761,13.33483 57.95364,35.93939 106.448134,64.13826 88.07873,51.21655 127.03891,74.9582 145.06665,88.40105 28.95162,21.5885 52.00907,51.70156 61.23985,79.97926 2.3188,7.10343 3.28314,11.95228 5.76422,28.9832 l 0.77696,5.33334 63.44282,0.6518 c 34.89356,0.3585 119.60283,0.71299 188.24283,0.78777 207.90814,0.2265 643.17236,1.49621 643.61496,1.8775 0.2283,0.19661 12.4401,0.2507 27.1374,0.1202 l 26.7224,-0.23727 z"
       transform="translate(-14.638502,15.440369)"
       id="path1261" />
    <path
       style="fill:#803300;stroke-width:1.06667"
       d="m 1020.8068,893.54316 c 0.3002,-0.48573 1.329,-11.06772 2.2863,-23.51554 1.3629,-17.72155 1.4612,-22.96894 0.4532,-24.18351 -1.4985,-1.80566 -9.0943,-2.10005 -10.1491,-0.39335 -0.9396,1.52044 -4.8113,46.93645 -4.0994,48.08828 0.713,1.15363 10.7963,1.15724 11.509,0.004 z"
       transform="translate(-14.638502,15.440369)"
       id="path1265" />
  </g>
</svg>
